<svg width="24" height="24" viewBox="0 0 24 24" fill="none" xmlns="http://www.w3.org/2000/svg">
<path d="M11.0205 1.4209L11.0195 1.42188V1.42285C11.0191 1.42397 11.0184 1.42561 11.0176 1.42773C11.0159 1.43221 11.0131 1.4394 11.0098 1.44824C11.003 1.46595 10.9925 1.49201 10.9795 1.52637C10.9532 1.59571 10.9146 1.69842 10.8643 1.83105C10.7636 2.09635 10.6171 2.48225 10.4346 2.96484C10.418 3.00865 10.4009 3.05324 10.3838 3.09863H10.333V3.23438C9.97769 4.17484 9.50796 5.42167 8.97949 6.83008C8.96565 6.86698 8.9524 6.90429 8.93848 6.94141L8.84375 6.9668L8.88574 7.08301C7.74165 10.1337 6.34444 13.886 5.24707 16.9287L5.05859 17.4512L5.59766 17.584C6.93865 17.9134 7.88788 18.4202 8.69824 19.2188C9.52211 20.0307 10.2296 21.1704 11.0391 22.8193L11.4873 23.7334L11.9365 22.8193C12.7322 21.1985 13.5747 20.0587 14.5371 19.2432C15.4961 18.4306 16.6005 17.9165 17.9541 17.584L17.7158 16.6133C17.6848 16.6209 17.6539 16.6299 17.623 16.6377C16.5117 13.5635 15.1214 9.82903 13.9961 6.83008C13.9881 6.80865 13.9807 6.78697 13.9727 6.76562L14.0117 6.6543L13.9209 6.62988C13.423 5.30354 12.9801 4.13003 12.6416 3.23438V3.09863H12.5908C12.5737 3.05323 12.5566 3.00867 12.54 2.96484C12.3575 2.48225 12.211 2.09635 12.1104 1.83105C12.0601 1.69845 12.0214 1.59571 11.9951 1.52637C11.9821 1.49201 11.9716 1.46594 11.9648 1.44824C11.9615 1.43941 11.9587 1.43222 11.957 1.42773C11.9562 1.4256 11.9555 1.42396 11.9551 1.42285V1.4209L11.4873 0.191406L11.0205 1.4209ZM14.377 18.1016L14.3721 18.0986H14.3809C14.3795 18.0996 14.3783 18.1006 14.377 18.1016ZM11.5225 3.09863H11.4541C11.4657 3.06827 11.4771 3.03828 11.4883 3.00879C11.4994 3.0383 11.511 3.06817 11.5225 3.09863Z" fill="url(#paint0_linear_601_5)"/>
<path d="M11.0205 1.4209L11.0195 1.42188V1.42285C11.0191 1.42397 11.0184 1.42561 11.0176 1.42773C11.0159 1.43221 11.0131 1.4394 11.0098 1.44824C11.003 1.46595 10.9925 1.49201 10.9795 1.52637C10.9532 1.59571 10.9146 1.69842 10.8643 1.83105C10.7636 2.09635 10.6171 2.48225 10.4346 2.96484C10.418 3.00865 10.4009 3.05324 10.3838 3.09863H10.333V3.23438C9.97769 4.17484 9.50796 5.42167 8.97949 6.83008C8.96565 6.86698 8.9524 6.90429 8.93848 6.94141L8.84375 6.9668L8.88574 7.08301C7.74165 10.1337 6.34444 13.886 5.24707 16.9287L5.05859 17.4512L5.59766 17.584C6.93865 17.9134 7.88788 18.4202 8.69824 19.2188C9.52211 20.0307 10.2296 21.1704 11.0391 22.8193L11.4873 23.7334L11.9365 22.8193C12.7322 21.1985 13.5747 20.0587 14.5371 19.2432C15.4961 18.4306 16.6005 17.9165 17.9541 17.584L17.7158 16.6133C17.6848 16.6209 17.6539 16.6299 17.623 16.6377C16.5117 13.5635 15.1214 9.82903 13.9961 6.83008C13.9881 6.80865 13.9807 6.78697 13.9727 6.76562L14.0117 6.6543L13.9209 6.62988C13.423 5.30354 12.9801 4.13003 12.6416 3.23438V3.09863H12.5908C12.5737 3.05323 12.5566 3.00867 12.54 2.96484C12.3575 2.48225 12.211 2.09635 12.1104 1.83105C12.0601 1.69845 12.0214 1.59571 11.9951 1.52637C11.9821 1.49201 11.9716 1.46594 11.9648 1.44824C11.9615 1.43941 11.9587 1.43222 11.957 1.42773C11.9562 1.4256 11.9555 1.42396 11.9551 1.42285V1.4209L11.4873 0.191406L11.0205 1.4209ZM14.377 18.1016L14.3721 18.0986H14.3809C14.3795 18.0996 14.3783 18.1006 14.377 18.1016ZM11.5225 3.09863H11.4541C11.4657 3.06827 11.4771 3.03828 11.4883 3.00879C11.4994 3.0383 11.511 3.06817 11.5225 3.09863Z" fill="url(#paint1_linear_601_5)"/>
<defs>
<linearGradient id="paint0_linear_601_5" x1="11.6338" y1="8.42794e-09" x2="11.6338" y2="23.876" gradientUnits="userSpaceOnUse">
<stop stop-color="#D9D9D9"/>
<stop offset="1" stop-color="#737373"/>
</linearGradient>
<linearGradient id="paint1_linear_601_5" x1="11.6338" y1="8.42794e-09" x2="11.6338" y2="23.876" gradientUnits="userSpaceOnUse">
<stop stop-color="#00D992"/>
<stop offset="1" stop-color="#00734D"/>
</linearGradient>
</defs>
</svg>
