<svg width="24" height="24" viewBox="0 0 24 24" fill="none" xmlns="http://www.w3.org/2000/svg">
<path d="M12.0596 0.75L12.0605 0.751953C12.0613 0.753154 12.0631 0.754585 12.0645 0.756836C12.0672 0.761453 12.0709 0.768459 12.0762 0.777344C12.0869 0.795373 12.1033 0.822429 12.124 0.857422C12.1655 0.927399 12.2266 1.03094 12.3047 1.16406C12.4611 1.43072 12.6867 1.81774 12.9629 2.30176C13.5155 3.27034 14.2722 4.62766 15.0908 6.18066C16.7237 9.27829 18.6176 13.1869 19.6084 16.3574L19.7617 16.8477L19.2676 16.9883C16.8313 17.679 13.4069 19.1084 12.0908 22.2021L11.6309 23.2842L11.1709 22.2021C9.84613 19.088 6.89105 17.6678 4.49414 16.9883L4 16.8477L4.15332 16.3574C5.14143 13.1955 6.9055 9.29272 8.41309 6.19531C9.16855 4.6432 9.86283 3.28645 10.3682 2.31836C10.6208 1.8343 10.8272 1.44715 10.9697 1.18066C11.0408 1.04777 11.096 0.94484 11.1338 0.875C11.1527 0.840085 11.167 0.812907 11.1768 0.794922C11.1816 0.785929 11.186 0.779026 11.1885 0.774414C11.1895 0.77248 11.1898 0.770653 11.1904 0.769531L11.1914 0.767578L11.4102 0.886719V0.885742L11.1924 0.767578L11.6104 0L12.0596 0.75Z" fill="#D9D9D9"/>
<path d="M12.0596 0.75L12.0605 0.751953C12.0613 0.753154 12.0631 0.754585 12.0645 0.756836C12.0672 0.761453 12.0709 0.768459 12.0762 0.777344C12.0869 0.795373 12.1033 0.822429 12.124 0.857422C12.1655 0.927399 12.2266 1.03094 12.3047 1.16406C12.4611 1.43072 12.6867 1.81774 12.9629 2.30176C13.5155 3.27034 14.2722 4.62766 15.0908 6.18066C16.7237 9.27829 18.6176 13.1869 19.6084 16.3574L19.7617 16.8477L19.2676 16.9883C16.8313 17.679 13.4069 19.1084 12.0908 22.2021L11.6309 23.2842L11.1709 22.2021C9.84613 19.088 6.89105 17.6678 4.49414 16.9883L4 16.8477L4.15332 16.3574C5.14143 13.1955 6.9055 9.29272 8.41309 6.19531C9.16855 4.6432 9.86283 3.28645 10.3682 2.31836C10.6208 1.8343 10.8272 1.44715 10.9697 1.18066C11.0408 1.04777 11.096 0.94484 11.1338 0.875C11.1527 0.840085 11.167 0.812907 11.1768 0.794922C11.1816 0.785929 11.186 0.779026 11.1885 0.774414C11.1895 0.77248 11.1898 0.770653 11.1904 0.769531L11.1914 0.767578L11.4102 0.886719V0.885742L11.1924 0.767578L11.6104 0L12.0596 0.75Z" fill="url(#paint0_linear_602_6)"/>
<defs>
<linearGradient id="paint0_linear_602_6" x1="11.8809" y1="0" x2="11.8809" y2="23.2842" gradientUnits="userSpaceOnUse">
<stop stop-color="#00D992"/>
<stop offset="1" stop-color="#00734D"/>
</linearGradient>
</defs>
</svg>
