<svg width="2199" height="768" viewBox="0 0 2199 768" fill="none" xmlns="http://www.w3.org/2000/svg">
<path d="M0.5 67.5H69.5V0H70.5V67.5H139.5V0H140.5V67.5H209.5V0H210.5V67.5H279.5V0H280.5V67.5H349.5V0H350.5V67.5H419.5V0H420.5V67.5H489.5V0H490.5V67.5H559.5V0H560.5V67.5H629.5V0H630.5V67.5H699.5V0H700.5V67.5H769.5V0H770.5V67.5H839.5V0H840.5V67.5H909.5V0H910.5V67.5H979.5V0H980.5V67.5H1049.5V0H1050.5V67.5H1119.5V0H1120.5V67.5H1189.5V0H1190.5V67.5H1259.5V0H1260.5V67.5H1329.5V0H1330.5V67.5H1399.5V0H1400.5V67.5H1469.5V0H1470.5V67.5H1539.5V0H1540.5V67.5H1609.5V0H1610.5V67.5H1679.5V0H1680.5V67.5H1749.5V0H1750.5V67.5H1819.5V0H1820.5V67.5H1889.5V0H1890.5V67.5H1959.5V0H1960.5V67.5H2029.5V0H2030.5V67.5H2099.5V0H2100.5V67.5H2169.5V0H2170.5V67.5H2199V68.5H2170.5V137.5H2199V138.5H2170.5V207.5H2199V208.5H2170.5V277.5H2199V278.5H2170.5V347.5H2199V348.5H2170.5V417.5H2199V418.5H2170.5V487.5H2199V488.5H2170.5V557.5H2199V558.5H2170.5V627.5H2199V628.5H2170.5V697.5H2199V698.5H2170.5V767.5H2199V768.5H0V768H-0.5V0H0.5V67.5ZM0.5 767.5H69.5V698.5H0.5V767.5ZM70.5 767.5H139.5V698.5H70.5V767.5ZM140.5 767.5H209.5V698.5H140.5V767.5ZM210.5 767.5H279.5V698.5H210.5V767.5ZM280.5 767.5H349.5V698.5H280.5V767.5ZM350.5 767.5H419.5V698.5H350.5V767.5ZM420.5 767.5H489.5V698.5H420.5V767.5ZM490.5 767.5H559.5V698.5H490.5V767.5ZM560.5 767.5H629.5V698.5H560.5V767.5ZM630.5 767.5H699.5V698.5H630.5V767.5ZM700.5 767.5H769.5V698.5H700.5V767.5ZM770.5 767.5H839.5V698.5H770.5V767.5ZM840.5 767.5H909.5V698.5H840.5V767.5ZM910.5 767.5H979.5V698.5H910.5V767.5ZM980.5 767.5H1049.5V698.5H980.5V767.5ZM1050.5 767.5H1119.5V698.5H1050.5V767.5ZM1120.5 767.5H1189.5V698.5H1120.5V767.5ZM1190.5 767.5H1259.5V698.5H1190.5V767.5ZM1260.5 767.5H1329.5V698.5H1260.5V767.5ZM1330.5 767.5H1399.5V698.5H1330.5V767.5ZM1400.5 767.5H1469.5V698.5H1400.5V767.5ZM1470.5 767.5H1539.5V698.5H1470.5V767.5ZM1540.5 767.5H1609.5V698.5H1540.5V767.5ZM1610.5 767.5H1679.5V698.5H1610.5V767.5ZM1680.5 767.5H1749.5V698.5H1680.5V767.5ZM1750.5 767.5H1819.5V698.5H1750.5V767.5ZM1820.5 767.5H1889.5V698.5H1820.5V767.5ZM1890.5 767.5H1959.5V698.5H1890.5V767.5ZM1960.5 767.5H2029.5V698.5H1960.5V767.5ZM2030.5 767.5H2099.5V698.5H2030.5V767.5ZM2100.5 767.5H2169.5V698.5H2100.5V767.5ZM0.5 697.5H69.5V628.5H0.5V697.5ZM70.5 697.5H139.5V628.5H70.5V697.5ZM140.5 697.5H209.5V628.5H140.5V697.5ZM210.5 697.5H279.5V628.5H210.5V697.5ZM280.5 697.5H349.5V628.5H280.5V697.5ZM350.5 697.5H419.5V628.5H350.5V697.5ZM420.5 697.5H489.5V628.5H420.5V697.5ZM490.5 697.5H559.5V628.5H490.5V697.5ZM560.5 697.5H629.5V628.5H560.5V697.5ZM630.5 697.5H699.5V628.5H630.5V697.5ZM700.5 697.5H769.5V628.5H700.5V697.5ZM770.5 697.5H839.5V628.5H770.5V697.5ZM840.5 697.5H909.5V628.5H840.5V697.5ZM910.5 697.5H979.5V628.5H910.5V697.5ZM980.5 697.5H1049.5V628.5H980.5V697.5ZM1050.5 697.5H1119.5V628.5H1050.5V697.5ZM1120.5 697.5H1189.5V628.5H1120.5V697.5ZM1190.5 697.5H1259.5V628.5H1190.5V697.5ZM1260.5 697.5H1329.5V628.5H1260.5V697.5ZM1330.5 697.5H1399.5V628.5H1330.5V697.5ZM1400.5 697.5H1469.5V628.5H1400.5V697.5ZM1470.5 697.5H1539.5V628.5H1470.5V697.5ZM1540.5 697.5H1609.5V628.5H1540.5V697.5ZM1610.5 697.5H1679.5V628.5H1610.5V697.5ZM1680.5 697.5H1749.5V628.5H1680.5V697.5ZM1750.5 697.5H1819.5V628.5H1750.5V697.5ZM1820.5 697.5H1889.5V628.5H1820.5V697.5ZM1890.5 697.5H1959.5V628.5H1890.5V697.5ZM1960.5 697.5H2029.5V628.5H1960.5V697.5ZM2030.5 697.5H2099.5V628.5H2030.5V697.5ZM2100.5 697.5H2169.5V628.5H2100.5V697.5ZM0.5 627.5H69.5V558.5H0.5V627.5ZM70.5 627.5H139.5V558.5H70.5V627.5ZM140.5 627.5H209.5V558.5H140.5V627.5ZM210.5 627.5H279.5V558.5H210.5V627.5ZM280.5 627.5H349.5V558.5H280.5V627.5ZM350.5 627.5H419.5V558.5H350.5V627.5ZM420.5 627.5H489.5V558.5H420.5V627.5ZM490.5 627.5H559.5V558.5H490.5V627.5ZM560.5 627.5H629.5V558.5H560.5V627.5ZM630.5 627.5H699.5V558.5H630.5V627.5ZM700.5 627.5H769.5V558.5H700.5V627.5ZM770.5 627.5H839.5V558.5H770.5V627.5ZM840.5 627.5H909.5V558.5H840.5V627.5ZM910.5 627.5H979.5V558.5H910.5V627.5ZM980.5 627.5H1049.5V558.5H980.5V627.5ZM1050.5 627.5H1119.5V558.5H1050.5V627.5ZM1120.5 627.5H1189.5V558.5H1120.5V627.5ZM1190.5 627.5H1259.5V558.5H1190.5V627.5ZM1260.5 627.5H1329.5V558.5H1260.5V627.5ZM1330.5 627.5H1399.5V558.5H1330.5V627.5ZM1400.5 627.5H1469.5V558.5H1400.5V627.5ZM1470.5 627.5H1539.5V558.5H1470.5V627.5ZM1540.5 627.5H1609.5V558.5H1540.5V627.5ZM1610.5 627.5H1679.5V558.5H1610.5V627.5ZM1680.5 627.5H1749.5V558.5H1680.5V627.5ZM1750.5 627.5H1819.5V558.5H1750.5V627.5ZM1820.5 627.5H1889.5V558.5H1820.5V627.5ZM1890.5 627.5H1959.5V558.5H1890.5V627.5ZM1960.5 627.5H2029.5V558.5H1960.5V627.5ZM2030.5 627.5H2099.5V558.5H2030.5V627.5ZM2100.5 627.5H2169.5V558.5H2100.5V627.5ZM0.5 557.5H69.5V488.5H0.5V557.5ZM70.5 557.5H139.5V488.5H70.5V557.5ZM140.5 557.5H209.5V488.5H140.5V557.5ZM210.5 557.5H279.5V488.5H210.5V557.5ZM280.5 557.5H349.5V488.5H280.5V557.5ZM350.5 557.5H419.5V488.5H350.5V557.5ZM420.5 557.5H489.5V488.5H420.5V557.5ZM490.5 557.5H559.5V488.5H490.5V557.5ZM560.5 557.5H629.5V488.5H560.5V557.5ZM630.5 557.5H699.5V488.5H630.5V557.5ZM700.5 557.5H769.5V488.5H700.5V557.5ZM770.5 557.5H839.5V488.5H770.5V557.5ZM840.5 557.5H909.5V488.5H840.5V557.5ZM910.5 557.5H979.5V488.5H910.5V557.5ZM980.5 557.5H1049.5V488.5H980.5V557.5ZM1050.5 557.5H1119.5V488.5H1050.5V557.5ZM1120.5 557.5H1189.5V488.5H1120.5V557.5ZM1190.5 557.5H1259.5V488.5H1190.5V557.5ZM1260.5 557.5H1329.5V488.5H1260.5V557.5ZM1330.5 557.5H1399.5V488.5H1330.5V557.5ZM1400.5 557.5H1469.5V488.5H1400.5V557.5ZM1470.5 557.5H1539.5V488.5H1470.5V557.5ZM1540.5 557.5H1609.5V488.5H1540.5V557.5ZM1610.5 557.5H1679.5V488.5H1610.5V557.5ZM1680.5 557.5H1749.5V488.5H1680.5V557.5ZM1750.5 557.5H1819.5V488.5H1750.5V557.5ZM1820.5 557.5H1889.5V488.5H1820.5V557.5ZM1890.5 557.5H1959.5V488.5H1890.5V557.5ZM1960.5 557.5H2029.5V488.5H1960.5V557.5ZM2030.5 557.5H2099.5V488.5H2030.5V557.5ZM2100.5 557.5H2169.5V488.5H2100.5V557.5ZM0.5 487.5H69.5V418.5H0.5V487.5ZM70.5 487.5H139.5V418.5H70.5V487.5ZM140.5 487.5H209.5V418.5H140.5V487.5ZM210.5 487.5H279.5V418.5H210.5V487.5ZM280.5 487.5H349.5V418.5H280.5V487.5ZM350.5 487.5H419.5V418.5H350.5V487.5ZM420.5 487.5H489.5V418.5H420.5V487.5ZM490.5 487.5H559.5V418.5H490.5V487.5ZM560.5 487.5H629.5V418.5H560.5V487.5ZM630.5 487.5H699.5V418.5H630.5V487.5ZM700.5 487.5H769.5V418.5H700.5V487.5ZM770.5 487.5H839.5V418.5H770.5V487.5ZM840.5 487.5H909.5V418.5H840.5V487.5ZM910.5 487.5H979.5V418.5H910.5V487.5ZM980.5 487.5H1049.5V418.5H980.5V487.5ZM1050.5 487.5H1119.5V418.5H1050.5V487.5ZM1120.5 487.5H1189.5V418.5H1120.5V487.5ZM1190.5 487.5H1259.5V418.5H1190.5V487.5ZM1260.5 487.5H1329.5V418.5H1260.5V487.5ZM1330.5 487.5H1399.5V418.5H1330.5V487.5ZM1400.5 487.5H1469.5V418.5H1400.5V487.5ZM1470.5 487.5H1539.5V418.5H1470.5V487.5ZM1540.5 487.5H1609.5V418.5H1540.5V487.5ZM1610.5 487.5H1679.5V418.5H1610.5V487.5ZM1680.5 487.5H1749.5V418.5H1680.5V487.5ZM1750.5 487.5H1819.5V418.5H1750.5V487.5ZM1820.5 487.5H1889.5V418.5H1820.5V487.5ZM1890.5 487.5H1959.5V418.5H1890.5V487.5ZM1960.5 487.5H2029.5V418.5H1960.5V487.5ZM2030.5 487.5H2099.5V418.5H2030.5V487.5ZM2100.5 487.5H2169.5V418.5H2100.5V487.5ZM0.5 417.5H69.5V348.5H0.5V417.5ZM70.5 417.5H139.5V348.5H70.5V417.5ZM140.5 417.5H209.5V348.5H140.5V417.5ZM210.5 417.5H279.5V348.5H210.5V417.5ZM280.5 417.5H349.5V348.5H280.5V417.5ZM350.5 417.5H419.5V348.5H350.5V417.5ZM420.5 417.5H489.5V348.5H420.5V417.5ZM490.5 417.5H559.5V348.5H490.5V417.5ZM560.5 417.5H629.5V348.5H560.5V417.5ZM630.5 417.5H699.5V348.5H630.5V417.5ZM700.5 417.5H769.5V348.5H700.5V417.5ZM770.5 417.5H839.5V348.5H770.5V417.5ZM840.5 417.5H909.5V348.5H840.5V417.5ZM910.5 417.5H979.5V348.5H910.5V417.5ZM980.5 417.5H1049.5V348.5H980.5V417.5ZM1050.5 417.5H1119.5V348.5H1050.5V417.5ZM1120.5 417.5H1189.5V348.5H1120.5V417.5ZM1190.5 417.5H1259.5V348.5H1190.5V417.5ZM1260.5 417.5H1329.5V348.5H1260.5V417.5ZM1330.5 417.5H1399.5V348.5H1330.5V417.5ZM1400.5 417.5H1469.5V348.5H1400.5V417.5ZM1470.5 417.5H1539.5V348.5H1470.5V417.5ZM1540.5 417.5H1609.5V348.5H1540.5V417.5ZM1610.5 417.5H1679.5V348.5H1610.5V417.5ZM1680.5 417.5H1749.5V348.5H1680.5V417.5ZM1750.5 417.5H1819.5V348.5H1750.5V417.5ZM1820.5 417.5H1889.5V348.5H1820.5V417.5ZM1890.5 417.5H1959.5V348.5H1890.5V417.5ZM1960.5 417.5H2029.5V348.5H1960.5V417.5ZM2030.5 417.5H2099.5V348.5H2030.5V417.5ZM2100.5 417.5H2169.5V348.5H2100.5V417.5ZM0.5 347.5H69.5V278.5H0.5V347.5ZM70.5 347.5H139.5V278.5H70.5V347.5ZM140.5 347.5H209.5V278.5H140.5V347.5ZM210.5 347.5H279.5V278.5H210.5V347.5ZM280.5 347.5H349.5V278.5H280.5V347.5ZM350.5 347.5H419.5V278.5H350.5V347.5ZM420.5 347.5H489.5V278.5H420.5V347.5ZM490.5 347.5H559.5V278.5H490.5V347.5ZM560.5 347.5H629.5V278.5H560.5V347.5ZM630.5 347.5H699.5V278.5H630.5V347.5ZM700.5 347.5H769.5V278.5H700.5V347.5ZM770.5 347.5H839.5V278.5H770.5V347.5ZM840.5 347.5H909.5V278.5H840.5V347.5ZM910.5 347.5H979.5V278.5H910.5V347.5ZM980.5 347.5H1049.5V278.5H980.5V347.5ZM1050.5 347.5H1119.5V278.5H1050.5V347.5ZM1120.5 347.5H1189.5V278.5H1120.5V347.5ZM1190.5 347.5H1259.5V278.5H1190.5V347.5ZM1260.5 347.5H1329.5V278.5H1260.5V347.5ZM1330.5 347.5H1399.5V278.5H1330.5V347.5ZM1400.5 347.5H1469.5V278.5H1400.5V347.5ZM1470.5 347.5H1539.5V278.5H1470.5V347.5ZM1540.5 347.5H1609.5V278.5H1540.5V347.5ZM1610.5 347.5H1679.5V278.5H1610.5V347.5ZM1680.5 347.5H1749.5V278.5H1680.5V347.5ZM1750.5 347.5H1819.5V278.5H1750.5V347.5ZM1820.5 347.5H1889.5V278.5H1820.5V347.5ZM1890.5 347.5H1959.5V278.5H1890.5V347.5ZM1960.5 347.5H2029.5V278.5H1960.5V347.5ZM2030.5 347.5H2099.5V278.5H2030.5V347.5ZM2100.5 347.5H2169.5V278.5H2100.5V347.5ZM0.5 277.5H69.5V208.5H0.5V277.5ZM70.5 277.5H139.5V208.5H70.5V277.5ZM140.5 277.5H209.5V208.5H140.5V277.5ZM210.5 277.5H279.5V208.5H210.5V277.5ZM280.5 277.5H349.5V208.5H280.5V277.5ZM350.5 277.5H419.5V208.5H350.5V277.5ZM420.5 277.5H489.5V208.5H420.5V277.5ZM490.5 277.5H559.5V208.5H490.5V277.5ZM560.5 277.5H629.5V208.5H560.5V277.5ZM630.5 277.5H699.5V208.5H630.5V277.5ZM700.5 277.5H769.5V208.5H700.5V277.5ZM770.5 277.5H839.5V208.5H770.5V277.5ZM840.5 277.5H909.5V208.5H840.5V277.5ZM910.5 277.5H979.5V208.5H910.5V277.5ZM980.5 277.5H1049.5V208.5H980.5V277.5ZM1050.5 277.5H1119.5V208.5H1050.5V277.5ZM1120.5 277.5H1189.5V208.5H1120.5V277.5ZM1190.5 277.5H1259.5V208.5H1190.5V277.5ZM1260.5 277.5H1329.5V208.5H1260.5V277.5ZM1330.5 277.5H1399.5V208.5H1330.5V277.5ZM1400.5 277.5H1469.5V208.5H1400.5V277.5ZM1470.5 277.5H1539.5V208.5H1470.5V277.5ZM1540.5 277.5H1609.5V208.5H1540.5V277.5ZM1610.5 277.5H1679.5V208.5H1610.5V277.5ZM1680.5 277.5H1749.5V208.5H1680.5V277.5ZM1750.5 277.5H1819.5V208.5H1750.5V277.5ZM1820.5 277.5H1889.5V208.5H1820.5V277.5ZM1890.5 277.5H1959.5V208.5H1890.5V277.5ZM1960.5 277.5H2029.5V208.5H1960.5V277.5ZM2030.5 277.5H2099.5V208.5H2030.5V277.5ZM2100.5 277.5H2169.5V208.5H2100.5V277.5ZM0.5 207.5H69.5V138.5H0.5V207.5ZM70.5 207.5H139.5V138.5H70.5V207.5ZM140.5 207.5H209.5V138.5H140.5V207.5ZM210.5 207.5H279.5V138.5H210.5V207.5ZM280.5 207.5H349.5V138.5H280.5V207.5ZM350.5 207.5H419.5V138.5H350.5V207.5ZM420.5 207.5H489.5V138.5H420.5V207.5ZM490.5 207.5H559.5V138.5H490.5V207.5ZM560.5 207.5H629.5V138.5H560.5V207.5ZM630.5 207.5H699.5V138.5H630.5V207.5ZM700.5 207.5H769.5V138.5H700.5V207.5ZM770.5 207.5H839.5V138.5H770.5V207.5ZM840.5 207.5H909.5V138.5H840.5V207.5ZM910.5 207.5H979.5V138.5H910.5V207.5ZM980.5 207.5H1049.5V138.5H980.5V207.5ZM1050.5 207.5H1119.5V138.5H1050.5V207.5ZM1120.5 207.5H1189.5V138.5H1120.5V207.5ZM1190.5 207.5H1259.5V138.5H1190.5V207.5ZM1260.5 207.5H1329.5V138.5H1260.5V207.5ZM1330.5 207.5H1399.5V138.5H1330.5V207.5ZM1400.5 207.5H1469.5V138.5H1400.5V207.5ZM1470.5 207.5H1539.5V138.5H1470.5V207.5ZM1540.5 207.5H1609.5V138.5H1540.5V207.5ZM1610.5 207.5H1679.5V138.5H1610.5V207.5ZM1680.5 207.5H1749.5V138.5H1680.5V207.5ZM1750.5 207.5H1819.5V138.5H1750.5V207.5ZM1820.5 207.5H1889.5V138.5H1820.5V207.5ZM1890.5 207.5H1959.5V138.5H1890.5V207.5ZM1960.5 207.5H2029.5V138.5H1960.5V207.5ZM2030.5 207.5H2099.5V138.5H2030.5V207.5ZM2100.5 207.5H2169.5V138.5H2100.5V207.5ZM0.5 137.5H69.5V68.5H0.5V137.5ZM70.5 137.5H139.5V68.5H70.5V137.5ZM140.5 137.5H209.5V68.5H140.5V137.5ZM210.5 137.5H279.5V68.5H210.5V137.5ZM280.5 137.5H349.5V68.5H280.5V137.5ZM350.5 137.5H419.5V68.5H350.5V137.5ZM420.5 137.5H489.5V68.5H420.5V137.5ZM490.5 137.5H559.5V68.5H490.5V137.5ZM560.5 137.5H629.5V68.5H560.5V137.5ZM630.5 137.5H699.5V68.5H630.5V137.5ZM700.5 137.5H769.5V68.5H700.5V137.5ZM770.5 137.5H839.5V68.5H770.5V137.5ZM840.5 137.5H909.5V68.5H840.5V137.5ZM910.5 137.5H979.5V68.5H910.5V137.5ZM980.5 137.5H1049.5V68.5H980.5V137.5ZM1050.5 137.5H1119.5V68.5H1050.5V137.5ZM1120.5 137.5H1189.5V68.5H1120.5V137.5ZM1190.5 137.5H1259.5V68.5H1190.5V137.5ZM1260.5 137.5H1329.5V68.5H1260.5V137.5ZM1330.5 137.5H1399.5V68.5H1330.5V137.5ZM1400.5 137.5H1469.5V68.5H1400.5V137.5ZM1470.5 137.5H1539.5V68.5H1470.5V137.5ZM1540.5 137.5H1609.5V68.5H1540.5V137.5ZM1610.5 137.5H1679.5V68.5H1610.5V137.5ZM1680.5 137.5H1749.5V68.5H1680.5V137.5ZM1750.5 137.5H1819.5V68.5H1750.5V137.5ZM1820.5 137.5H1889.5V68.5H1820.5V137.5ZM1890.5 137.5H1959.5V68.5H1890.5V137.5ZM1960.5 137.5H2029.5V68.5H1960.5V137.5ZM2030.5 137.5H2099.5V68.5H2030.5V137.5ZM2100.5 137.5H2169.5V68.5H2100.5V137.5ZM2199 -1.5H0V-2.5H2199V-1.5Z" fill="url(#paint0_radial_415_640)" fill-opacity="0.45"/>
<defs>
<radialGradient id="paint0_radial_415_640" cx="0" cy="0" r="1" gradientTransform="matrix(-1112.42 161 -459.299 -1112.02 1775.82 427.5)" gradientUnits="userSpaceOnUse">
<stop offset="0.106914" stop-color="#676767"/>
<stop offset="1" stop-color="#4A484A" stop-opacity="0"/>
</radialGradient>
</defs>
</svg>
